<svg xmlns:dc="http://purl.org/dc/elements/1.1/" xmlns:cc="http://creativecommons.org/ns#" xmlns:rdf="http://www.w3.org/1999/02/22-rdf-syntax-ns#" xmlns:svg="http://www.w3.org/2000/svg" xmlns="http://www.w3.org/2000/svg" xmlns:sodipodi="http://sodipodi.sourceforge.net/DTD/sodipodi-0.dtd" xmlns:inkscape="http://www.inkscape.org/namespaces/inkscape" version="1.1" x="0px" y="0px" viewBox="0 0 100 125"><g transform="translate(0,-952.36218)"><path style="text-indent:0;text-transform:none;direction:ltr;block-progression:tb;baseline-shift:baseline;color:#000000;enable-background:accumulate;" d="m 19,960.36217 0,27 -11,0 c -1.08878,0 -2,1.09872 -2,2.00002 l 0,32.00001 c 1.05e-4,1.0471 0.952831,1.9999 2,2 l 11,0 0,21 c 1.05e-4,1.0471 0.952831,1.9999 2,2 l 58,0 c 1.047169,-10e-5 1.999895,-0.9529 2,-2 l 0,-21 11,0 c 1.047169,-10e-5 1.999895,-0.9529 2,-2 l 0,-32.00001 c -1.05e-4,-1.0472 -0.952831,-1.99991 -2,-2.00002 l -11,0 0,-11 c -0.0042,-0.52204 -0.222534,-1.03918 -0.59375,-1.40625 l -16,-16 C 64.039182,958.5847 63.522037,958.36635 63,958.36217 l -42,0 c -1.088782,0 -2,1.09875 -2,2 z m 4,2 38,0 0,14 c 1.05e-4,1.04717 0.952831,1.9999 2,2 l 14,0 0,17.00002 -54,0 z m 42,2.8125 9.1875,9.1875 -9.1875,0 z m -55,26.18752 9,0 0,4 -9,0 z m 71,0 9,0 0,4 -9,0 z m -71,8 80,0 0,12.00001 -80,0 z m 57,3.00001 c -1.656853,0 -3,1.3431 -3,3 0,1.6568 1.343147,3 3,3 1.656853,0 3,-1.3432 3,-3 0,-1.6569 -1.343147,-3 -3,-3 z m 10,0 c -1.656853,0 -3,1.3431 -3,3 0,1.6568 1.343147,3 3,3 1.656853,0 3,-1.3432 3,-3 0,-1.6569 -1.343147,-3 -3,-3 z m -67,13 9,0 0,4 -9,0 z m 13,0 54,0 0,27 -54,0 z m 58,0 9,0 0,4 -9,0 z" fill="#000000" fill-opacity="1" stroke="none" marker="none" visibility="visible" display="inline" overflow="visible"/></g></svg>
