<svg xmlns="http://www.w3.org/2000/svg" xmlns:xlink="http://www.w3.org/1999/xlink" version="1.1" x="0px" y="0px" viewBox="0 0 72 90" enable-background="new 0 0 72 72" xml:space="preserve"><g><path fill="#000000" d="M66.4,29.2l-1.3-6.3c-0.7-3.2-3.8-5.2-6.9-4.5L1.5,30.2c-0.5,0.1-0.9,0.6-1,1.1h0v11.4   c0,3.6,2.8,6.8,6.4,6.9c3.7,0.1,6.8-2.9,6.8-6.6v-0.4c0-0.6,0.4-1.1,1-1.2l50.7-10.6C66.1,30.6,66.5,29.9,66.4,29.2z"/><path fill="#000000" d="M31.7,42H58c0.3,0,0.6-0.3,0.6-0.6v-5.5c0-0.4-0.3-0.6-0.7-0.6l-26.4,5.5C30.8,41,31,42,31.7,42z"/><path fill="#000000" d="M71.2,51.8l-3.6-4.1c-0.2-0.3-0.6-0.4-0.9-0.4H15.9c-0.1,0-0.3,0.1-0.3,0.2c-1.6,3-4.8,5-8.4,5   c-2.3,0-4.4-0.8-6-2.1c-0.2-0.2-0.6,0-0.6,0.3v1.9c0,0.7,0.5,1.2,1.2,1.2h68.6C71.3,53.8,71.9,52.6,71.2,51.8z"/></g></svg>
