<?xml version="1.0" encoding="UTF-8" standalone="no"?>
<!-- Created with Inkscape (http://www.inkscape.org/) -->

<svg
   xmlns:dc="http://purl.org/dc/elements/1.1/"
   xmlns:cc="http://creativecommons.org/ns#"
   xmlns:rdf="http://www.w3.org/1999/02/22-rdf-syntax-ns#"
   xmlns:svg="http://www.w3.org/2000/svg"
   xmlns="http://www.w3.org/2000/svg"
   xmlns:xlink="http://www.w3.org/1999/xlink"
   xmlns:sodipodi="http://sodipodi.sourceforge.net/DTD/sodipodi-0.dtd"
   xmlns:inkscape="http://www.inkscape.org/namespaces/inkscape"
   width="168.29143"
   height="168.29143"
   id="svg2"
   version="1.1"
   inkscape:version="0.48.2 r9819"
   sodipodi:docname="pyrook_logo.svg"
   inkscape:export-xdpi="34.226353"
   inkscape:export-ydpi="34.226353">
  <defs
     id="defs4">
    <linearGradient
       id="linearGradient3883">
      <stop
         style="stop-color:#000000;stop-opacity:1;"
         offset="0"
         id="stop3885" />
      <stop
         style="stop-color:#ffffff;stop-opacity:1;"
         offset="1"
         id="stop3887" />
    </linearGradient>
    <linearGradient
       id="linearGradient3859">
      <stop
         style="stop-color:#505050;stop-opacity:1;"
         offset="0"
         id="stop3861" />
      <stop
         style="stop-color:#ffffff;stop-opacity:1;"
         offset="1"
         id="stop3863" />
    </linearGradient>
    <linearGradient
       id="linearGradient3851">
      <stop
         style="stop-color:#d1d1d1;stop-opacity:1;"
         offset="0"
         id="stop3853" />
      <stop
         style="stop-color:#000000;stop-opacity:1;"
         offset="1"
         id="stop3855" />
    </linearGradient>
    <linearGradient
       id="linearGradient3912">
      <stop
         style="stop-color:#2a2a2a;stop-opacity:1;"
         offset="0"
         id="stop3914" />
      <stop
         style="stop-color:#000000;stop-opacity:1;"
         offset="1"
         id="stop3916" />
    </linearGradient>
    <radialGradient
       inkscape:collect="always"
       xlink:href="#linearGradient3912"
       id="radialGradient3920"
       cx="492.55374"
       cy="538.2691"
       fx="492.55374"
       fy="538.2691"
       r="77.375"
       gradientTransform="matrix(1.1884189,0.39583197,-0.13532596,0.40618817,-25.677972,115.64075)"
       gradientUnits="userSpaceOnUse" />
    <linearGradient
       inkscape:collect="always"
       xlink:href="#linearGradient3851"
       id="linearGradient3857"
       x1="47.987358"
       y1="128.00047"
       x2="140.81013"
       y2="24.734604"
       gradientUnits="userSpaceOnUse" />
    <linearGradient
       inkscape:collect="always"
       xlink:href="#linearGradient3859"
       id="linearGradient3865"
       x1="56.627983"
       y1="139.33418"
       x2="161.56326"
       y2="46.65192"
       gradientUnits="userSpaceOnUse" />
    <linearGradient
       inkscape:collect="always"
       xlink:href="#linearGradient3883"
       id="linearGradient3889"
       x1="264.97794"
       y1="-55.345131"
       x2="2.2028663"
       y2="156.56656"
       gradientUnits="userSpaceOnUse" />
  </defs>
  <sodipodi:namedview
     id="base"
     pagecolor="#ffffff"
     bordercolor="#666666"
     borderopacity="1.0"
     inkscape:pageopacity="0.0"
     inkscape:pageshadow="2"
     inkscape:zoom="1.4142136"
     inkscape:cx="43.760143"
     inkscape:cy="22.757576"
     inkscape:document-units="px"
     inkscape:current-layer="layer1"
     showgrid="false"
     inkscape:window-width="1128"
     inkscape:window-height="968"
     inkscape:window-x="343"
     inkscape:window-y="66"
     inkscape:window-maximized="0"
     fit-margin-top="0"
     fit-margin-left="0"
     fit-margin-right="0"
     fit-margin-bottom="0" />
  <metadata
     id="metadata7">
    <rdf:RDF>
      <cc:Work
         rdf:about="">
        <dc:format>image/svg+xml</dc:format>
        <dc:type
           rdf:resource="http://purl.org/dc/dcmitype/StillImage" />
        <dc:title />
      </cc:Work>
    </rdf:RDF>
  </metadata>
  <g
     inkscape:label="Layer 1"
     inkscape:groupmode="layer"
     id="layer1"
     transform="translate(-342.64709,-412.47385)">
    <rect
       style="opacity:0;color:#000000;fill:#000000;fill-opacity:1;fill-rule:nonzero;stroke:none;stroke-width:3;marker:none;visibility:visible;display:inline;overflow:visible;enable-background:accumulate"
       id="rect3836"
       width="163.89658"
       height="163.89641"
       x="344.8428"
       y="414.67151"
       inkscape:export-xdpi="34.23"
       inkscape:export-ydpi="34.23" />
    <path
       sodipodi:open="true"
       sodipodi:end="11.766672"
       sodipodi:start="5.4887312"
       transform="matrix(0.91369785,0,0,1.478594,340.47542,358.0581)"
       d="M 153.60521,56.610372 A 84.49926,51.972347 0 1 1 153.28822,56.4199"
       sodipodi:ry="51.972347"
       sodipodi:rx="84.49926"
       sodipodi:cy="93.691666"
       sodipodi:cx="94.39875"
       id="path3867"
       style="color:#000000;fill:url(#linearGradient3889);fill-opacity:1;fill-rule:nonzero;stroke:url(#linearGradient3865);stroke-width:8.60348129;stroke-linecap:square;stroke-miterlimit:4;stroke-dasharray:none;marker:none;visibility:visible;display:inline;overflow:visible;enable-background:accumulate"
       sodipodi:type="arc" />
    <path
       style="color:#000000;fill:url(#radialGradient3920);fill-opacity:1;stroke:#000000;stroke-width:3.00000024;stroke-linecap:round;stroke-linejoin:round;stroke-miterlimit:4;stroke-opacity:1;stroke-dasharray:none;stroke-dashoffset:0;marker:none;visibility:visible;display:inline;overflow:visible;enable-background:accumulate"
       d="m 449.24667,508.15813 -6.24542,-16.50359 -43.71787,-31.22301 -12.04472,-15.16546 -6.46847,-12.71222 0.4461,7.80575 4.68407,7.80576 10.26032,12.04316 -2.23052,-1.56116 -14.94437,-15.16546 -8.47591,-12.04316 -0.8922,4.23741 5.13016,9.14388 14.49827,14.4964 -14.72133,-10.03597 -11.15251,-11.3741 -0.44609,3.79137 3.79184,4.68345 6.91456,6.91366 8.47591,6.46763 -21.41284,-12.26619 -0.22304,2.45324 2.89966,2.89928 10.92946,8.02878 -8.02981,-2.67625 0.4461,2.00719 9.14506,6.69063 -1.56135,0.44605 5.13015,5.35253 0.44611,3.56833 5.13017,4.23742 -0.66915,2.89927 30.33484,34.12229 0.44611,4.01438 6.6915,4.90647 3.56881,-2.23021 0.22305,2.45324 -13.60606,4.46044 -22.9742,-1.33814 -11.37557,-1.11511 1.56135,2.89928 -5.13015,-0.22302 -0.44611,2.23022 2.67661,2.23021 -3.34576,0.89209 -0.66915,1.78417 3.5688,0.44605 0.22306,1.56115 -2.00745,0.89208 0.66915,2.45323 0.8922,-0.44604 -0.22305,2.23022 3.1227,1.56115 8.69897,-2.23022 3.5688,0.89208 -6.24541,3.79137 3.1227,2.45323 4.46102,1.78418 5.7993,0.44605 2.00745,-1.11512 2.89966,3.12231 7.13763,-0.89209 1.3383,1.78417 6.46845,-0.66906 7.36067,1.1151 2.00746,-2.00719 7.5837,0.22303 1.78441,-3.34533 3.1227,-1.56116 1.7844,-3.34531 -2.67661,-1.78418 9.36812,-3.56833 15.16743,-12.04317 9.81422,-0.66906 4.68406,-1.33814 8.92201,2.45325 -0.22305,-2.89929 -11.15251,-11.15106 9.59116,-3.79138 8.25287,-2.89927 2.6766,-3.56834 0,-6.69064 -3.79187,4.90645 0,-15.16545 -2.2305,-3.34532 -3.5688,5.35251 -0.66916,8.25181 -2.00745,-11.82016 -1.78439,-1.78416 -3.34576,3.56835 1.11524,12.26617 -4.01489,-11.3741 -4.23797,2.89929 0.44611,4.46043 2.00746,3.56833 -6.46847,-6.69064 -4.01491,1.33812 1.56135,5.12951 -5.13015,-2.0072 -2.00746,1.78418 0.66916,2.67625 -4.46102,0 -1.78439,3.79137 z"
       id="path2996"
       inkscape:connector-curvature="0"
       inkscape:export-xdpi="34.23"
       inkscape:export-ydpi="34.23" />
  </g>
</svg>
